<svg width="129" height="85" viewBox="0 0 129 85" fill="none" xmlns="http://www.w3.org/2000/svg">
<path d="M117.191 36.8491C113.743 36.145 110.27 35.5555 106.775 35.0976C106.532 35.0663 106.288 35.0412 106.045 35.0114C106.683 31.5242 106.67 27.9022 106.198 24.3711C105.928 22.2198 105.447 20.1015 104.874 18.0114C104.27 15.9213 103.557 13.897 102.637 11.8743L102.419 11.393L101.892 11.4416C99.69 11.6438 97.5786 12.0139 95.4656 12.5156C93.3652 13.0362 91.2884 13.665 89.2868 14.4976C87.2821 15.3145 85.3479 16.3164 83.5471 17.5175C82.6514 18.1243 81.795 18.7875 80.984 19.4963C80.7377 19.7158 80.5087 19.951 80.2734 20.183C79.6836 19.283 79.0859 18.3893 78.4726 17.5065C76.4616 14.6199 74.3079 11.843 72.0851 9.12566C69.8498 6.40993 67.569 3.7773 65.1188 1.19641L63.9831 -0.00152588L62.8772 1.2262C60.4897 3.87765 58.278 6.58241 56.1117 9.36713C53.9579 12.1503 51.8811 14.9977 49.9391 17.944C49.5046 18.6104 49.0763 19.2814 48.6544 19.9572C48.5085 19.8271 48.3704 19.6876 48.2199 19.5605C47.39 18.8738 46.5163 18.234 45.6034 17.6523C43.7712 16.5014 41.8104 15.5528 39.7837 14.7908C37.7602 14.013 35.6661 13.4407 33.5531 12.9782C31.4276 12.536 29.3068 12.224 27.0997 12.0813L26.5711 12.0468L26.3656 12.5329C25.5013 14.5791 24.8456 16.6237 24.2981 18.7295C23.7821 20.8337 23.3585 22.9646 23.1499 25.1237C22.7875 28.5388 22.8566 32.026 23.5185 35.3799C23.0417 35.4489 22.5648 35.5131 22.0895 35.5884C18.6071 36.1419 15.153 36.8271 11.7255 37.6252C8.29177 38.4296 4.90979 39.3108 1.51212 40.3927L0.00152588 40.8741L0.592902 42.3511C1.91213 45.6517 3.35057 48.8253 4.88312 51.991C6.41882 55.1458 8.04863 58.2613 9.82119 61.3017C11.6047 64.3372 13.5138 67.307 15.611 70.1654C16.6777 71.5829 17.7569 72.9941 18.9397 74.3331C19.5091 75.0183 20.1397 75.6596 20.742 76.3213C21.3836 76.9532 21.9954 77.607 22.6793 78.2044C23.9954 79.44 25.448 80.5595 27.0119 81.5427C27.7821 82.0507 28.6229 82.4662 29.4558 82.888C30.3076 83.2423 31.15 83.6202 32.0394 83.8884C33.7978 84.4622 35.6331 84.8338 37.4857 84.9577C39.3398 85.0737 41.2033 84.9436 43.012 84.6002C46.6418 83.9119 50.0081 82.358 53.0167 80.398C54.5211 79.4086 55.9423 78.3111 57.2881 77.1319C58.6293 75.9324 59.8874 74.711 61.0639 73.2716L61.9219 72.2226L60.7031 71.6911C57.5674 70.3238 54.2544 69.372 50.8787 68.9283C47.503 68.5049 44.0755 68.53 40.739 69.071L39.4888 69.2764C39.0747 69.3563 38.6637 69.452 38.2512 69.5398C37.4229 69.7013 36.6166 69.9459 35.8025 70.1607C34.9978 70.4069 34.1978 70.6687 33.4088 70.9525C32.6276 71.2599 31.8354 71.5374 31.0747 71.8933C29.5264 72.5488 28.0629 73.3186 26.5429 73.9819C25.6095 74.3927 24.6527 74.7565 23.6754 75.0544C23.415 74.791 23.1577 74.5244 22.8942 74.2641C22.3311 73.6354 21.7413 73.0348 21.2032 72.3794C20.0895 71.1062 19.0636 69.7452 18.0456 68.3795C16.0424 65.6183 14.2024 62.7222 12.48 59.7525C9.30825 54.285 6.45019 48.5618 3.98743 42.7478C10.0424 40.8913 16.2683 39.328 22.524 38.2273C25.9248 37.6472 29.3397 37.1658 32.7656 36.9118C35.3821 36.7362 38.0127 36.6609 40.6104 36.824C40.5931 36.8836 40.5743 36.9431 40.5571 37.0027C40.2967 37.862 40.1163 38.7526 39.9186 39.6338C39.7727 40.5307 39.5939 41.4197 39.5359 42.337C39.4276 43.2417 39.4386 44.1731 39.4433 45.0872C39.4982 45.9935 39.5484 46.8998 39.7022 47.7982C39.9751 49.5936 40.4096 51.3764 41.1186 53.0572C41.8151 54.7397 42.7234 56.3312 43.823 57.7659C46.0363 60.6368 48.9414 62.8665 52.0912 64.469C55.2521 66.0605 58.6466 67.1361 62.1117 67.5939C60.405 67.2239 58.7517 66.6657 57.1438 66.0166C55.5391 65.3627 53.9768 64.6116 52.5069 63.7179C49.5689 61.9414 46.9336 59.6647 45.0528 56.8721C44.1053 55.486 43.3383 53.9886 42.7767 52.4191C42.201 50.8527 41.8841 49.2016 41.7132 47.5442C41.6096 46.7163 41.6128 45.8775 41.5845 45.0433C41.6128 44.2154 41.6253 43.4001 41.7555 42.5753C41.8339 41.7521 42.0316 40.9336 42.19 40.1167C42.4049 39.3045 42.5963 38.4892 42.8708 37.6879C42.9398 37.4762 43.0151 37.2661 43.0873 37.056C43.8983 37.1438 44.6951 37.2912 45.4951 37.4261C46.3108 37.6174 47.1422 37.7757 47.9312 38.0439C48.7422 38.2665 49.4983 38.5911 50.2701 38.9094C51.0246 39.2779 51.7916 39.6306 52.5069 40.0728C55.4183 41.7474 57.914 44.1292 59.6584 47.0268C61.4121 49.9213 62.3956 53.2752 62.7862 56.6934C63.1392 60.1178 63.0105 63.6332 62.2795 67.0436C63.2537 63.6928 63.6631 60.1602 63.4937 56.6369C63.318 53.1184 62.4819 49.5669 60.7658 46.398C59.914 44.8144 58.8489 43.3373 57.6113 42.0171C56.3768 40.689 54.9336 39.5711 53.4152 38.5942C52.6622 38.0893 51.8591 37.6785 51.0622 37.252C50.2387 36.871 49.401 36.479 48.5383 36.203C47.6849 35.8785 46.8049 35.6731 45.9328 35.4347C45.2363 35.2905 44.5398 35.1306 43.8402 35.0145C45.9767 29.5862 49.0434 24.4605 52.3689 19.5731C55.936 14.3502 59.8654 9.29814 64.0411 4.56285C68.3361 9.16486 72.3847 14.093 76.0914 19.1952C79.6961 24.1876 83.0279 29.4435 85.3354 35.0616C84.5275 35.2011 83.7291 35.4081 82.9291 35.5962C82.0632 35.8581 81.1895 36.0886 80.3455 36.4367C79.4906 36.7346 78.664 37.1517 77.8514 37.5546C77.0671 38.0031 76.2749 38.4343 75.5361 38.9596C74.0459 39.9787 72.6325 41.1343 71.4357 42.4969C70.2341 43.8516 69.2114 45.3569 68.4035 46.9641C66.7753 50.18 66.0364 53.7518 65.958 57.2751C65.8843 60.803 66.3909 64.3216 67.4576 67.6457C66.6325 64.2573 66.4066 60.7466 66.6655 57.3127C66.9619 53.8851 67.8529 50.5061 69.5266 47.563C71.191 44.6199 73.6192 42.1692 76.4851 40.4162C77.1863 39.9552 77.944 39.582 78.6891 39.1916C79.4514 38.8529 80.1997 38.5064 81.0044 38.2618C81.7856 37.9717 82.6122 37.7914 83.4216 37.5782C84.2499 37.4151 85.0718 37.2348 85.9142 37.1266C85.9832 37.1156 86.0522 37.1078 86.1213 37.0984C86.6734 38.6475 87.0922 40.2312 87.3511 41.8258C87.5048 42.6427 87.5471 43.4596 87.6099 44.2797C87.6005 45.1076 87.6334 45.9418 87.5471 46.7665C87.4201 48.4192 87.1017 50.0577 86.5683 51.6335C86.0287 53.2078 85.2758 54.7099 84.3612 56.1195C82.5401 58.9513 80.0255 61.3409 77.2271 63.3259C75.8232 64.3169 74.3377 65.1996 72.802 65.9962C71.2647 66.788 69.6788 67.5077 68.0286 68.0612C71.4121 67.227 74.6702 65.8456 77.693 64.0378C80.7048 62.2174 83.464 59.8748 85.602 56.9756C86.6656 55.5252 87.5519 53.9322 88.2248 52.245C88.8883 50.5547 89.326 48.7735 89.5519 46.9703C89.6852 46.0688 89.7072 45.1609 89.7417 44.2515C89.7087 43.3358 89.6868 42.4138 89.5519 41.5138C89.3479 39.9113 88.9981 38.3433 88.5401 36.8177C91.0515 36.6045 93.5989 36.6123 96.1354 36.7126C99.566 36.8726 102.995 37.2599 106.408 37.7459C112.691 38.6742 118.958 40.065 125.061 41.7553C122.758 47.6352 120.059 53.4351 117.039 58.9873C115.398 62.0041 113.638 64.9488 111.712 67.7633C110.733 69.1556 109.743 70.5449 108.666 71.8479C108.146 72.519 107.574 73.1352 107.028 73.778C106.772 74.0462 106.521 74.319 106.269 74.5902C105.284 74.319 104.317 73.9819 103.373 73.5962C101.837 72.9737 100.352 72.2461 98.7864 71.633C98.0162 71.2991 97.2178 71.0419 96.4272 70.7566C95.6303 70.4947 94.8241 70.2548 94.0131 70.0306C93.1942 69.8377 92.3801 69.6151 91.5487 69.4771C91.1346 69.4018 90.7205 69.3156 90.3048 69.2482L89.0499 69.0772C85.7009 68.6288 82.2734 68.6978 78.9102 69.2121C75.5486 69.7483 72.2624 70.7895 69.1659 72.243L67.9612 72.8075L68.8474 73.8329C70.0631 75.2394 71.3541 76.4248 72.7282 77.5882C74.1055 78.7297 75.5565 79.7881 77.0875 80.7352C80.1495 82.612 83.5565 84.0734 87.2052 84.6614C89.0232 84.9546 90.8899 85.033 92.7393 84.8668C94.5888 84.6927 96.4131 84.2709 98.1543 83.6485C99.0358 83.3568 99.8672 82.957 100.71 82.5775C101.53 82.1338 102.36 81.6948 103.116 81.1664C104.652 80.1409 106.073 78.9822 107.354 77.7105C108.021 77.0943 108.614 76.4232 109.238 75.7741C109.822 75.0967 110.435 74.4382 110.986 73.7373C112.131 72.3653 113.171 70.9259 114.198 69.4786C116.216 66.5638 118.045 63.5423 119.743 60.4596C121.431 57.3707 122.975 54.2128 124.424 51.0157C125.869 47.8092 127.22 44.598 128.448 41.2613L128.997 39.7686L127.474 39.328C124.048 38.3386 120.642 37.5499 117.188 36.8412L117.191 36.8491ZM26.6778 74.3143C28.2542 73.7655 29.7774 73.0677 31.3288 72.5205C34.4206 71.3728 37.6441 70.6295 40.8943 70.2799C44.1461 69.9114 47.4293 70.0729 50.6293 70.5825C53.3587 71.0498 56.0144 71.8651 58.5383 72.9643C57.6929 73.8282 56.7752 74.6702 55.8434 75.4511C54.543 76.5283 53.1767 77.5239 51.7493 78.4067C48.8928 80.1644 45.7712 81.4596 42.543 82.0099C40.932 82.2875 39.2959 82.3721 37.6786 82.2451C36.0614 82.1087 34.4676 81.7575 32.9319 81.2275C32.157 80.9829 31.4166 80.6317 30.6668 80.3087C29.9562 79.9276 29.2409 79.567 28.5648 79.1013C27.1986 78.2138 25.906 77.1711 24.6887 76.0265C24.3797 75.7537 24.0832 75.4636 23.7915 75.1688C24.7687 74.943 25.7319 74.6514 26.6762 74.3143H26.6778ZM44.5681 27.09C43.3226 29.5376 42.179 32.0542 41.2818 34.6805C38.3939 34.3826 35.4998 34.3779 32.6276 34.4908C29.6911 34.6257 26.7719 34.922 23.873 35.3313C23.7774 34.0847 23.7319 32.8382 23.7679 31.5932C23.7993 29.4764 24.0174 27.3691 24.3436 25.2852C24.6872 23.203 25.128 21.1379 25.7115 19.1121C26.2323 17.265 26.8425 15.4117 27.5719 13.6681C29.459 13.7935 31.3852 14.0648 33.2676 14.4145C35.3398 14.7829 37.379 15.3098 39.3884 15.9307C41.39 16.5736 43.3555 17.3419 45.2269 18.3124C46.1712 18.7844 47.0732 19.3332 47.9626 19.9071C48.132 20.02 48.2952 20.1454 48.463 20.263C47.081 22.4848 45.7681 24.7568 44.5649 27.0947L44.5681 27.09ZM105.735 34.9753C102.581 34.5959 99.4045 34.3466 96.2123 34.287C93.4311 34.2556 90.6342 34.3325 87.8483 34.6774C86.8366 31.819 85.5189 29.1017 84.0852 26.4691C82.9463 24.4087 81.7197 22.4049 80.4397 20.4402C80.7079 20.2348 80.973 20.0262 81.2491 19.8318C82.1244 19.2344 83.0107 18.6605 83.9408 18.1635C85.7856 17.1427 87.7291 16.3211 89.7119 15.6234C91.7025 14.9476 93.7276 14.3643 95.7888 13.9394C97.6617 13.538 99.5802 13.2134 101.463 13.0362C102.241 14.7594 102.901 16.5955 103.472 18.4269C104.11 20.437 104.608 22.4895 105.008 24.5608C105.39 26.6353 105.666 28.7348 105.756 30.85C105.834 32.2204 105.814 33.5955 105.732 34.9738L105.735 34.9753ZM105.287 75.5906C104.101 76.7682 102.838 77.8454 101.497 78.7705C100.835 79.2534 100.129 79.6344 99.4296 80.0343C98.6892 80.3777 97.9598 80.7493 97.1911 81.0158C95.6696 81.5881 94.0868 81.9833 92.4742 82.1636C90.8617 82.3345 89.224 82.2953 87.6052 82.0617C84.3644 81.5991 81.2067 80.3918 78.3032 78.7125C76.8522 77.8689 75.4592 76.9109 74.129 75.8713C73.1769 75.1171 72.2373 74.3002 71.3667 73.4597C73.8608 72.2916 76.493 71.4026 79.2083 70.8616C82.3926 70.2642 85.6695 70.0118 88.9307 70.2909C92.1887 70.5511 95.4327 71.2066 98.5543 72.2681C100.12 72.773 101.662 73.4284 103.252 73.9333C104.206 74.2453 105.177 74.5087 106.161 74.7094C105.877 75.012 105.588 75.31 105.287 75.5906Z" fill="white"/>
</svg>
